<svg width="7714" height="7295" viewBox="0 0 7714 7295" fill="none" xmlns="http://www.w3.org/2000/svg">
<path d="M3850.02 3654.81L0 3882.36L4.31989 3365.94L3850.08 3649.63L3850.02 3654.81V3654.81Z" fill="#FF6DCD"/>
<path d="M3862.31 3642.59L92.2266 2848.52L251.583 2351.55L3863.93 3637.65L3862.31 3642.59V3642.59Z" fill="#FF6DCD"/>
<path d="M3860.92 3642.6L474.922 1876.92L776.949 1438.6L3863.92 3638.2L3860.92 3642.6V3642.6Z" fill="#FF6DCD"/>
<path d="M3859.69 3642.59L1138.88 1051.14L1558.45 710.074L3863.91 3639.18L3859.69 3642.59Z" fill="#FF6DCD"/>
<path d="M3858.86 3642.59L2014.95 428.688L2519.22 212.098L3863.92 3640.44L3858.86 3642.59Z" fill="#FF6DCD"/>
<path d="M3858.34 3642.59L3029.35 74.0782L3585.34 0L3863.92 3641.86L3858.34 3642.59V3642.59Z" fill="#FF6DCD"/>
<path d="M3850.08 3641.86L4128.65 0L4684.65 74.0782L3855.66 3642.59L3850.08 3641.86V3641.86Z" fill="#FF6DCD"/>
<path d="M3850.08 3640.44L5194.78 212.098L5699.04 428.688L3855.13 3642.59L3850.08 3640.44V3640.44Z" fill="#FF6DCD"/>
<path d="M3850.08 3639.18L6155.54 710.074L6575.11 1051.14L3854.3 3642.59L3850.08 3639.18Z" fill="#FF6DCD"/>
<path d="M3850.08 3638.2L6937.05 1438.6L7239.07 1876.87L3853.08 3642.6L3850.08 3638.2V3638.2Z" fill="#FF6DCD"/>
<path d="M3850.08 3637.65L7462.41 2351.55L7621.78 2848.52L3851.69 3642.59L3850.08 3637.65V3637.65Z" fill="#FF6DCD"/>
<path d="M3850.08 3649.69L7709.65 3365.94L7713.99 3882.36L3850.13 3654.86L3850.08 3649.69V3649.69Z" fill="#FF6DCD"/>
<path d="M3850.14 3648.82L7713.99 3421.27L7709.66 3937.69L3850.08 3654L3850.14 3648.82V3648.82Z" fill="#FF6DCD"/>
<path d="M3851.69 3642.59L7621.78 4448.01L7462.42 4952.08L3850.08 3647.61L3851.69 3642.59V3642.59Z" fill="#FF6DCD"/>
<path d="M3853.08 3642.59L7239.07 5419.35L6937.05 5860.42L3850.08 3647.02L3853.08 3642.59V3642.59Z" fill="#FF6DCD"/>
<path d="M3854.3 3642.59L6575.11 6246.28L6155.54 6588.94L3850.08 3646.01L3854.3 3642.59Z" fill="#FF6DCD"/>
<path d="M3855.11 3642.59L5689.82 6856.49L5188.07 7073.08L3850.08 3644.75L3855.11 3642.59V3642.59Z" fill="#FF6DCD"/>
<path d="M3855.53 3642.59L4666.2 7220.14L4122.5 7294.41L3850.08 3643.33L3855.53 3642.59V3642.59Z" fill="#FF6DCD"/>
<path d="M3850.09 3643.33L3576.14 7294.41L3029.35 7220.14L3844.6 3642.59L3850.09 3643.33V3643.33Z" fill="#FF6DCD"/>
<path d="M3850.08 3644.75L2515.44 7073.08L2014.95 6856.49L3845.07 3642.59L3850.08 3644.75V3644.75Z" fill="#FF6DCD"/>
<path d="M3850.08 3646.01L1540.72 6588.94L1120.44 6246.28L3845.85 3642.59L3850.08 3646.01Z" fill="#FF6DCD"/>
<path d="M3850.09 3647.03L775.717 5860.42L474.922 5419.39L3847.1 3642.59L3850.09 3647.03V3647.03Z" fill="#FF6DCD"/>
<path d="M3850.09 3647.61L242.168 4952.08L83 4448.01L3848.48 3642.59L3850.09 3647.61V3647.61Z" fill="#FF6DCD"/>
<path d="M3850.08 3658.55L4.32635 3942.3L0 3425.88L3850.03 3653.37L3850.08 3658.55Z" fill="#FF6DCD"/>
</svg>
